<svg xmlns="http://www.w3.org/2000/svg" viewBox="0 0 512 512" role="img" aria-labelledby="title desc">
  <title id="title">Satisfy Your Agent</title>
  <desc id="desc">A relaxed terminal mascot resting on a pillow with closed eyes and a tiny smile.</desc>
  <g fill="none" stroke="#171717" stroke-width="14" stroke-linecap="round" stroke-linejoin="round">
    <path d="M104 359c25-43 73-61 149-55 76 6 129 32 155 76-22 39-69 58-144 58-78 0-132-24-160-79Z" fill="#FFF4EF"/>
    <path d="M140 369c34 12 72 18 115 18 58 0 104-10 139-30" stroke-width="9" opacity=".42"/>

    <g transform="rotate(-6 256 240)">
      <path d="M151 137c-9 2-16 10-17 20l-7 120c-1 17 11 31 28 33l193 10c17 1 32-11 33-28l7-119c1-17-11-31-28-33l-189-10c-7 0-14 2-20 7Z" fill="#FFFFFF"/>
      <path d="M258 131l4-38"/>
      <circle cx="263" cy="79" r="13" fill="#FF775F"/>

      <path d="M184 213c13 11 27 11 41 1"/>
      <path d="M293 220c13 11 27 11 41 1"/>
      <path d="M227 263c17 19 42 21 63 5"/>
      <path d="M167 173l18 1" stroke-width="10"/>
      <path d="M330 181l18 1" stroke-width="10"/>

      <path d="M144 286c-20 3-34 16-42 39"/>
      <path d="M369 304c20 7 32 19 39 36"/>
    </g>

    <path d="M388 112l6-17" stroke-width="10"/>
    <path d="M411 127l16-6" stroke-width="10"/>
    <path d="M397 143l9 15" stroke-width="10"/>
  </g>
</svg>
